<?xml version="1.0" standalone="no"?>
<!DOCTYPE svg PUBLIC "-//W3C//DTD SVG 20010904//EN"
 "http://www.w3.org/TR/2001/REC-SVG-20010904/DTD/svg10.dtd">
<svg version="1.0" xmlns="http://www.w3.org/2000/svg"
 width="512.000000pt" height="512.000000pt" viewBox="0 0 512.000000 512.000000"
 preserveAspectRatio="xMidYMid meet">
<metadata>
Created by potrace 1.14, written by Peter Selinger 2001-2017
</metadata>
<g transform="translate(0.000000,512.000000) scale(0.100000,-0.100000)"
fill="#000000" stroke="none">
<path d="M2370 4724 c-129 -22 -137 -23 -242 -58 -386 -127 -704 -392 -882
-736 -116 -225 -165 -432 -161 -682 6 -330 104 -618 298 -878 39 -51 151 -167
295 -302 90 -84 127 -180 157 -408 17 -127 29 -173 50 -198 l23 -27 648 0 648
0 27 22 c18 16 29 37 33 66 10 63 16 100 21 117 2 8 7 38 10 65 27 216 75 310
224 434 292 245 468 583 509 981 16 156 0 369 -38 511 -7 24 -13 51 -15 59 -8
36 -61 171 -96 243 -81 167 -216 336 -362 456 -214 174 -409 271 -660 327 -94
21 -383 26 -487 8z m406 -448 c332 -71 585 -268 720 -560 248 -538 29 -1149
-502 -1398 -132 -61 -263 -90 -414 -91 -160 -1 -232 10 -363 54 -269 93 -500
309 -615 579 -55 129 -78 249 -76 396 1 117 4 140 25 239 64 294 250 544 506
677 85 44 191 85 243 94 14 3 31 7 39 9 7 3 41 8 75 11 33 3 63 8 65 9 9 9
235 -5 297 -19z"/>
<path d="M2578 4144 c-2 -1 -31 -4 -66 -5 -274 -11 -533 -162 -690 -402 -189
-289 -184 -678 12 -972 158 -237 426 -377 724 -376 56 0 110 2 120 5 9 3 35 7
57 11 200 28 415 164 541 341 140 196 197 495 138 724 -66 261 -228 463 -464
579 -47 23 -92 43 -100 44 -8 2 -19 5 -25 8 -12 8 -51 17 -96 24 -19 2 -60 9
-91 13 -32 5 -59 8 -60 6z m123 -337 c72 -35 131 -93 166 -165 24 -49 28 -69
28 -142 0 -76 -3 -92 -33 -152 -35 -72 -83 -120 -155 -156 -56 -28 -69 -44
-67 -79 1 -15 2 -58 1 -95 -1 -55 -5 -72 -24 -94 -33 -38 -81 -37 -114 1 -22
25 -24 35 -22 132 1 58 6 120 12 139 16 51 61 99 119 126 69 33 105 71 122
127 41 143 -104 273 -241 216 -68 -29 -97 -68 -113 -158 -17 -85 -79 -113
-135 -61 -26 24 -27 29 -21 86 13 127 105 245 223 286 83 29 182 25 254 -11z
m-104 -1061 c20 -6 43 -51 43 -83 0 -24 -47 -63 -77 -63 -71 1 -104 80 -55
130 27 27 47 30 89 16z"/>
<path d="M652 4413 c-39 -19 -54 -59 -37 -99 9 -23 45 -49 163 -117 94 -54
162 -87 180 -87 57 0 97 83 61 126 -12 15 -273 168 -312 183 -16 7 -33 5 -55
-6z"/>
<path d="M4378 4401 c-167 -89 -273 -159 -282 -183 -18 -51 7 -96 56 -104 31
-5 53 5 185 80 83 48 157 93 164 102 16 19 16 78 0 98 -7 8 -25 19 -42 25 -24
8 -37 6 -81 -18z"/>
<path d="M385 3340 c-15 -3 -37 -17 -48 -32 -18 -24 -19 -32 -9 -66 17 -56 37
-61 244 -59 199 2 206 4 215 73 4 32 1 43 -20 62 -23 22 -32 23 -189 25 -90 1
-177 0 -193 -3z"/>
<path d="M4390 3337 c-41 -10 -64 -48 -56 -90 11 -57 37 -64 231 -64 94 0 180
4 191 9 23 11 44 47 44 78 0 10 -10 31 -22 45 -23 26 -24 26 -191 28 -92 1
-181 -1 -197 -6z"/>
<path d="M790 2331 c-134 -78 -157 -94 -166 -123 -23 -67 44 -125 108 -93 73
36 278 158 291 173 41 45 4 132 -55 132 -13 0 -93 -40 -178 -89z"/>
<path d="M4130 2413 c-46 -17 -64 -68 -40 -113 10 -18 186 -128 286 -178 54
-28 93 -18 116 27 14 28 15 39 5 64 -11 26 -29 40 -117 90 -221 126 -214 123
-250 110z"/>
<path d="M3220 1280 c-19 -3 -333 -5 -697 -5 l-663 0 0 -190 c0 -227 9 -284
61 -392 70 -147 213 -261 372 -298 66 -15 409 -22 487 -9 247 39 433 224 475
469 6 34 9 425 4 429 -2 1 -20 0 -39 -4z"/>
</g>
</svg>
